<svg id="visual" viewBox="0 0 960 540" width="960" height="540" xmlns="http://www.w3.org/2000/svg" xmlns:xlink="http://www.w3.org/1999/xlink" version="1.1"><path d="M0 39L32 39C64 39 128 39 192 42.5C256 46 320 53 384 53.8C448 54.7 512 49.3 576 58.3C640 67.3 704 90.7 768 94.3C832 98 896 82 928 74L960 66L960 0L928 0C896 0 832 0 768 0C704 0 640 0 576 0C512 0 448 0 384 0C320 0 256 0 192 0C128 0 64 0 32 0L0 0Z" fill="#dab296"></path><path d="M0 93L32 87.5C64 82 128 71 192 72.8C256 74.7 320 89.3 384 93.8C448 98.3 512 92.7 576 96.2C640 99.7 704 112.3 768 116.8C832 121.3 896 117.7 928 115.8L960 114L960 64L928 72C896 80 832 96 768 92.3C704 88.7 640 65.3 576 56.3C512 47.3 448 52.7 384 51.8C320 51 256 44 192 40.5C128 37 64 37 32 37L0 37Z" fill="#dea790"></path><path d="M0 136L32 129.7C64 123.3 128 110.7 192 110.7C256 110.7 320 123.3 384 121.5C448 119.7 512 103.3 576 110.5C640 117.7 704 148.3 768 158.3C832 168.3 896 157.7 928 152.3L960 147L960 112L928 113.8C896 115.7 832 119.3 768 114.8C704 110.3 640 97.7 576 94.2C512 90.7 448 96.3 384 91.8C320 87.3 256 72.7 192 70.8C128 69 64 80 32 85.5L0 91Z" fill="#e19c8e"></path><path d="M0 271L32 259.3C64 247.7 128 224.3 192 209C256 193.7 320 186.3 384 198.8C448 211.3 512 243.7 576 262.7C640 281.7 704 287.3 768 273C832 258.7 896 224.3 928 207.2L960 190L960 145L928 150.3C896 155.7 832 166.3 768 156.3C704 146.3 640 115.7 576 108.5C512 101.3 448 117.7 384 119.5C320 121.3 256 108.7 192 108.7C128 108.7 64 121.3 32 127.7L0 134Z" fill="#e29190"></path><path d="M0 341L32 321.2C64 301.3 128 261.7 192 242.8C256 224 320 226 384 242.3C448 258.7 512 289.3 576 301C640 312.7 704 305.3 768 289C832 272.7 896 247.3 928 234.7L960 222L960 188L928 205.2C896 222.3 832 256.7 768 271C704 285.3 640 279.7 576 260.7C512 241.7 448 209.3 384 196.8C320 184.3 256 191.7 192 207C128 222.3 64 245.7 32 257.3L0 269Z" fill="#e18796"></path><path d="M0 417L32 394.5C64 372 128 327 192 312.5C256 298 320 314 384 321.2C448 328.3 512 326.7 576 325.8C640 325 704 325 768 313.3C832 301.7 896 278.3 928 266.7L960 255L960 220L928 232.7C896 245.3 832 270.7 768 287C704 303.3 640 310.7 576 299C512 287.3 448 256.7 384 240.3C320 224 256 222 192 240.8C128 259.7 64 299.3 32 319.2L0 339Z" fill="#dc7e9f"></path><path d="M0 482L32 456.7C64 431.3 128 380.7 192 361.7C256 342.7 320 355.3 384 366.2C448 377 512 386 576 381.5C640 377 704 359 768 345.5C832 332 896 323 928 318.5L960 314L960 253L928 264.7C896 276.3 832 299.7 768 311.3C704 323 640 323 576 323.8C512 324.7 448 326.3 384 319.2C320 312 256 296 192 310.5C128 325 64 370 32 392.5L0 415Z" fill="#d376aa"></path><path d="M0 482L32 465.7C64 449.3 128 416.7 192 405.8C256 395 320 406 384 413.3C448 420.7 512 424.3 576 419.8C640 415.3 704 402.7 768 392.7C832 382.7 896 375.3 928 371.7L960 368L960 312L928 316.5C896 321 832 330 768 343.5C704 357 640 375 576 379.5C512 384 448 375 384 364.2C320 353.3 256 340.7 192 359.7C128 378.7 64 429.3 32 454.7L0 480Z" fill="#c472b6"></path><path d="M0 519L32 502C64 485 128 451 192 434.8C256 418.7 320 420.3 384 431.2C448 442 512 462 576 465.7C640 469.3 704 456.7 768 440.3C832 424 896 404 928 394L960 384L960 366L928 369.7C896 373.3 832 380.7 768 390.7C704 400.7 640 413.3 576 417.8C512 422.3 448 418.7 384 411.3C320 404 256 393 192 403.8C128 414.7 64 447.3 32 463.7L0 480Z" fill="#ae70c3"></path><path d="M0 541L32 541C64 541 128 541 192 541C256 541 320 541 384 541C448 541 512 541 576 541C640 541 704 541 768 541C832 541 896 541 928 541L960 541L960 382L928 392C896 402 832 422 768 438.3C704 454.7 640 467.3 576 463.7C512 460 448 440 384 429.2C320 418.3 256 416.7 192 432.8C128 449 64 483 32 500L0 517Z" fill="#9071cf"></path></svg>