<svg id="visual" viewBox="0 0 1920 1080" width="1920" height="1080" xmlns="http://www.w3.org/2000/svg" xmlns:xlink="http://www.w3.org/1999/xlink" version="1.1"><path d="M0 87L64 81.7C128 76.3 256 65.7 384 64C512 62.3 640 69.7 768 73.3C896 77 1024 77 1152 78.7C1280 80.3 1408 83.7 1536 81.8C1664 80 1792 73 1856 69.5L1920 66L1920 0L1856 0C1792 0 1664 0 1536 0C1408 0 1280 0 1152 0C1024 0 896 0 768 0C640 0 512 0 384 0C256 0 128 0 64 0L0 0Z" fill="#000222"></path><path d="M0 249L64 238.3C128 227.7 256 206.3 384 206.3C512 206.3 640 227.7 768 261.8C896 296 1024 343 1152 361C1280 379 1408 368 1536 351.8C1664 335.7 1792 314.3 1856 303.7L1920 293L1920 64L1856 67.5C1792 71 1664 78 1536 79.8C1408 81.7 1280 78.3 1152 76.7C1024 75 896 75 768 71.3C640 67.7 512 60.3 384 62C256 63.7 128 74.3 64 79.7L0 85Z" fill="#070b2b"></path><path d="M0 357L64 346.3C128 335.7 256 314.3 384 309C512 303.7 640 314.3 768 343C896 371.7 1024 418.3 1152 434.5C1280 450.7 1408 436.3 1536 427.3C1664 418.3 1792 414.7 1856 412.8L1920 411L1920 291L1856 301.7C1792 312.3 1664 333.7 1536 349.8C1408 366 1280 377 1152 359C1024 341 896 294 768 259.8C640 225.7 512 204.3 384 204.3C256 204.3 128 225.7 64 236.3L0 247Z" fill="#0b1233"></path><path d="M0 465L64 465C128 465 256 465 384 472.3C512 479.7 640 494.3 768 512.3C896 530.3 1024 551.7 1152 567.8C1280 584 1408 595 1536 593.3C1664 591.7 1792 577.3 1856 570.2L1920 563L1920 409L1856 410.8C1792 412.7 1664 416.3 1536 425.3C1408 434.3 1280 448.7 1152 432.5C1024 416.3 896 369.7 768 341C640 312.3 512 301.7 384 307C256 312.3 128 333.7 64 344.3L0 355Z" fill="#11163c"></path><path d="M0 530L64 537.2C128 544.3 256 558.7 384 567.7C512 576.7 640 580.3 768 596.7C896 613 1024 642 1152 660C1280 678 1408 685 1536 686.7C1664 688.3 1792 684.7 1856 682.8L1920 681L1920 561L1856 568.2C1792 575.3 1664 589.7 1536 591.3C1408 593 1280 582 1152 565.8C1024 549.7 896 528.3 768 510.3C640 492.3 512 477.7 384 470.3C256 463 128 463 64 463L0 463Z" fill="#191a45"></path><path d="M0 617L64 618.7C128 620.3 256 623.7 384 629C512 634.3 640 641.7 768 659.7C896 677.7 1024 706.3 1152 726.2C1280 746 1408 757 1536 762.5C1664 768 1792 768 1856 768L1920 768L1920 679L1856 680.8C1792 682.7 1664 686.3 1536 684.7C1408 683 1280 676 1152 658C1024 640 896 611 768 594.7C640 578.3 512 574.7 384 565.7C256 556.7 128 542.3 64 535.2L0 528Z" fill="#211e4f"></path><path d="M0 692L64 692C128 692 256 692 384 695.7C512 699.3 640 706.7 768 722.8C896 739 1024 764 1152 782C1280 800 1408 811 1536 820C1664 829 1792 836 1856 839.5L1920 843L1920 766L1856 766C1792 766 1664 766 1536 760.5C1408 755 1280 744 1152 724.2C1024 704.3 896 675.7 768 657.7C640 639.7 512 632.3 384 627C256 621.7 128 618.3 64 616.7L0 615Z" fill="#2a2258"></path><path d="M0 746L64 746C128 746 256 746 384 751.5C512 757 640 768 768 780.7C896 793.3 1024 807.7 1152 820.2C1280 832.7 1408 843.3 1536 854.2C1664 865 1792 876 1856 881.5L1920 887L1920 841L1856 837.5C1792 834 1664 827 1536 818C1408 809 1280 798 1152 780C1024 762 896 737 768 720.8C640 704.7 512 697.3 384 693.7C256 690 128 690 64 690L0 690Z" fill="#332660"></path><path d="M0 1027L64 1023.3C128 1019.7 256 1012.3 384 1014.2C512 1016 640 1027 768 1030.7C896 1034.3 1024 1030.7 1152 1027C1280 1023.3 1408 1019.7 1536 1019.7C1664 1019.7 1792 1023.3 1856 1025.2L1920 1027L1920 885L1856 879.5C1792 874 1664 863 1536 852.2C1408 841.3 1280 830.7 1152 818.2C1024 805.7 896 791.3 768 778.7C640 766 512 755 384 749.5C256 744 128 744 64 744L0 744Z" fill="#3d2969"></path><path d="M0 1081L64 1081C128 1081 256 1081 384 1081C512 1081 640 1081 768 1081C896 1081 1024 1081 1152 1081C1280 1081 1408 1081 1536 1081C1664 1081 1792 1081 1856 1081L1920 1081L1920 1025L1856 1023.2C1792 1021.3 1664 1017.7 1536 1017.7C1408 1017.7 1280 1021.3 1152 1025C1024 1028.7 896 1032.3 768 1028.7C640 1025 512 1014 384 1012.2C256 1010.3 128 1017.7 64 1021.3L0 1025Z" fill="#472d72"></path></svg>