<svg id="visual" viewBox="0 0 1080 1920" width="1080" height="1920" xmlns="http://www.w3.org/2000/svg" xmlns:xlink="http://www.w3.org/1999/xlink" version="1.1"><path d="M0 155L36 145.3C72 135.7 144 116.3 216 113C288 109.7 360 122.3 432 128.7C504 135 576 135 648 138.3C720 141.7 792 148.3 864 145.2C936 142 1008 129 1044 122.5L1080 116L1080 0L1044 0C1008 0 936 0 864 0C792 0 720 0 648 0C576 0 504 0 432 0C360 0 288 0 216 0C144 0 72 0 36 0L0 0Z" fill="#e0b292"></path><path d="M0 443L36 423.7C72 404.3 144 365.7 216 365.7C288 365.7 360 404.3 432 465.2C504 526 576 609 648 641C720 673 792 654 864 625.2C936 596.3 1008 557.7 1044 538.3L1080 519L1080 114L1044 120.5C1008 127 936 140 864 143.2C792 146.3 720 139.7 648 136.3C576 133 504 133 432 126.7C360 120.3 288 107.7 216 111C144 114.3 72 133.7 36 143.3L0 153Z" fill="#e7a78e"></path><path d="M0 635L36 615.7C72 596.3 144 557.7 216 548C288 538.3 360 557.7 432 609C504 660.3 576 743.7 648 772.5C720 801.3 792 775.7 864 759.7C936 743.7 1008 737.3 1044 734.2L1080 731L1080 517L1044 536.3C1008 555.7 936 594.3 864 623.2C792 652 720 671 648 639C576 607 504 524 432 463.2C360 402.3 288 363.7 216 363.7C144 363.7 72 402.3 36 421.7L0 441Z" fill="#ee9c8e"></path><path d="M0 827L36 827C72 827 144 827 216 839.7C288 852.3 360 877.7 432 909.7C504 941.7 576 980.3 648 1009.2C720 1038 792 1057 864 1053.7C936 1050.3 1008 1024.7 1044 1011.8L1080 999L1080 729L1044 732.2C1008 735.3 936 741.7 864 757.7C792 773.7 720 799.3 648 770.5C576 741.7 504 658.3 432 607C360 555.7 288 536.3 216 546C144 555.7 72 594.3 36 613.7L0 633Z" fill="#f29194"></path><path d="M0 942L36 954.8C72 967.7 144 993.3 216 1009.3C288 1025.3 360 1031.7 432 1060.3C504 1089 576 1140 648 1172C720 1204 792 1217 864 1220.3C936 1223.7 1008 1217.3 1044 1214.2L1080 1211L1080 997L1044 1009.8C1008 1022.7 936 1048.3 864 1051.7C792 1055 720 1036 648 1007.2C576 978.3 504 939.7 432 907.7C360 875.7 288 850.3 216 837.7C144 825 72 825 36 825L0 825Z" fill="#f2879e"></path><path d="M0 1095L36 1098.3C72 1101.7 144 1108.3 216 1118C288 1127.7 360 1140.3 432 1172.3C504 1204.3 576 1255.7 648 1290.8C720 1326 792 1345 864 1354.5C936 1364 1008 1364 1044 1364L1080 1364L1080 1209L1044 1212.2C1008 1215.3 936 1221.7 864 1218.3C792 1215 720 1202 648 1170C576 1138 504 1087 432 1058.3C360 1029.7 288 1023.3 216 1007.3C144 991.3 72 965.7 36 952.8L0 940Z" fill="#ee7ead"></path><path d="M0 1230L36 1230C72 1230 144 1230 216 1236.3C288 1242.7 360 1255.3 432 1284.2C504 1313 576 1358 648 1390C720 1422 792 1441 864 1457C936 1473 1008 1486 1044 1492.5L1080 1499L1080 1362L1044 1362C1008 1362 936 1362 864 1352.5C792 1343 720 1324 648 1288.8C576 1253.7 504 1202.3 432 1170.3C360 1138.3 288 1125.7 216 1116C144 1106.3 72 1099.7 36 1096.3L0 1093Z" fill="#e478be"></path><path d="M0 1326L36 1326C72 1326 144 1326 216 1335.5C288 1345 360 1364 432 1386.3C504 1408.7 576 1434.3 648 1456.8C720 1479.3 792 1498.7 864 1517.8C936 1537 1008 1556 1044 1565.5L1080 1575L1080 1497L1044 1490.5C1008 1484 936 1471 864 1455C792 1439 720 1420 648 1388C576 1356 504 1311 432 1282.2C360 1253.3 288 1240.7 216 1234.3C144 1228 72 1228 36 1228L0 1228Z" fill="#d177d1"></path><path d="M0 1825L36 1818.7C72 1812.3 144 1799.7 216 1802.8C288 1806 360 1825 432 1831.3C504 1837.7 576 1831.3 648 1825C720 1818.7 792 1812.3 864 1812.3C936 1812.3 1008 1818.7 1044 1821.8L1080 1825L1080 1573L1044 1563.5C1008 1554 936 1535 864 1515.8C792 1496.7 720 1477.3 648 1454.8C576 1432.3 504 1406.7 432 1384.3C360 1362 288 1343 216 1333.5C144 1324 72 1324 36 1324L0 1324Z" fill="#b57ae5"></path><path d="M0 1921L36 1921C72 1921 144 1921 216 1921C288 1921 360 1921 432 1921C504 1921 576 1921 648 1921C720 1921 792 1921 864 1921C936 1921 1008 1921 1044 1921L1080 1921L1080 1823L1044 1819.8C1008 1816.7 936 1810.3 864 1810.3C792 1810.3 720 1816.7 648 1823C576 1829.3 504 1835.7 432 1829.3C360 1823 288 1804 216 1800.8C144 1797.7 72 1810.3 36 1816.7L0 1823Z" fill="#897ff6"></path></svg>