<svg id="visual" viewBox="0 0 540 960" width="540" height="960" xmlns="http://www.w3.org/2000/svg" xmlns:xlink="http://www.w3.org/1999/xlink" version="1.1"><path d="M0 68L18 68C36 68 72 68 108 74.5C144 81 180 94 216 95.7C252 97.3 288 87.7 324 103.7C360 119.7 396 161.3 432 167.7C468 174 504 145 522 130.5L540 116L540 0L522 0C504 0 468 0 432 0C396 0 360 0 324 0C288 0 252 0 216 0C180 0 144 0 108 0C72 0 36 0 18 0L0 0Z" fill="#000222"></path><path d="M0 164L18 154.5C36 145 72 126 108 129.2C144 132.3 180 157.7 216 165.7C252 173.7 288 164.3 324 170.8C360 177.3 396 199.7 432 207.7C468 215.7 504 209.3 522 206.2L540 203L540 114L522 128.5C504 143 468 172 432 165.7C396 159.3 360 117.7 324 101.7C288 85.7 252 95.3 216 93.7C180 92 144 79 108 72.5C72 66 36 66 18 66L0 66Z" fill="#070b2b"></path><path d="M0 241L18 229.8C36 218.7 72 196.3 108 196.3C144 196.3 180 218.7 216 215.5C252 212.3 288 183.7 324 196.5C360 209.3 396 263.7 432 281.2C468 298.7 504 279.3 522 269.7L540 260L540 201L522 204.2C504 207.3 468 213.7 432 205.7C396 197.7 360 175.3 324 168.8C288 162.3 252 171.7 216 163.7C180 155.7 144 130.3 108 127.2C72 124 36 143 18 152.5L0 162Z" fill="#0b1233"></path><path d="M0 481L18 460.2C36 439.3 72 397.7 108 370.5C144 343.3 180 330.7 216 353.2C252 375.7 288 433.3 324 466.8C360 500.3 396 509.7 432 484C468 458.3 504 397.7 522 367.3L540 337L540 258L522 267.7C504 277.3 468 296.7 432 279.2C396 261.7 360 207.3 324 194.5C288 181.7 252 210.3 216 213.5C180 216.7 144 194.3 108 194.3C72 194.3 36 216.7 18 227.8L0 239Z" fill="#11163c"></path><path d="M0 606L18 570.8C36 535.7 72 465.3 108 431.7C144 398 180 401 216 429.7C252 458.3 288 512.7 324 533.5C360 554.3 396 541.7 432 513C468 484.3 504 439.7 522 417.3L540 395L540 335L522 365.3C504 395.7 468 456.3 432 482C396 507.7 360 498.3 324 464.8C288 431.3 252 373.7 216 351.2C180 328.7 144 341.3 108 368.5C72 395.7 36 437.3 18 458.2L0 479Z" fill="#191a45"></path><path d="M0 740L18 700C36 660 72 580 108 554.5C144 529 180 558 216 570.8C252 583.7 288 580.3 324 578.7C360 577 396 577 432 556.2C468 535.3 504 493.7 522 472.8L540 452L540 393L522 415.3C504 437.7 468 482.3 432 511C396 539.7 360 552.3 324 531.5C288 510.7 252 456.3 216 427.7C180 399 144 396 108 429.7C72 463.3 36 533.7 18 568.8L0 604Z" fill="#211e4f"></path><path d="M0 855L18 810.3C36 765.7 72 676.3 108 642.8C144 609.3 180 631.7 216 650.8C252 670 288 686 324 678C360 670 396 638 432 614C468 590 504 574 522 566L540 558L540 450L522 470.8C504 491.7 468 533.3 432 554.2C396 575 360 575 324 576.7C288 578.3 252 581.7 216 568.8C180 556 144 527 108 552.5C72 578 36 658 18 698L0 738Z" fill="#2a2258"></path><path d="M0 855L18 826.3C36 797.7 72 740.3 108 721.2C144 702 180 721 216 733.7C252 746.3 288 752.7 324 744.7C360 736.7 396 714.3 432 696.8C468 679.3 504 666.7 522 660.3L540 654L540 556L522 564C504 572 468 588 432 612C396 636 360 668 324 676C288 684 252 668 216 648.8C180 629.7 144 607.3 108 640.8C72 674.3 36 763.7 18 808.3L0 853Z" fill="#332660"></path><path d="M0 923L18 892.5C36 862 72 801 108 772.2C144 743.3 180 746.7 216 765.8C252 785 288 820 324 826.3C360 832.7 396 810.3 432 781.7C468 753 504 718 522 700.5L540 683L540 652L522 658.3C504 664.7 468 677.3 432 694.8C396 712.3 360 734.7 324 742.7C288 750.7 252 744.3 216 731.7C180 719 144 700 108 719.2C72 738.3 36 795.7 18 824.3L0 853Z" fill="#3d2969"></path><path d="M0 961L18 961C36 961 72 961 108 961C144 961 180 961 216 961C252 961 288 961 324 961C360 961 396 961 432 961C468 961 504 961 522 961L540 961L540 681L522 698.5C504 716 468 751 432 779.7C396 808.3 360 830.7 324 824.3C288 818 252 783 216 763.8C180 744.7 144 741.3 108 770.2C72 799 36 860 18 890.5L0 921Z" fill="#472d72"></path></svg>